<svg id="e9ibN6PzFrw1" xmlns="http://www.w3.org/2000/svg" xmlns:xlink="http://www.w3.org/1999/xlink" viewBox="0 0 343.955 219.264" shape-rendering="geometricPrecision" text-rendering="geometricPrecision"><style><![CDATA[#e9ibN6PzFrw16_to {animation: e9ibN6PzFrw16_to__to 3000ms linear infinite alternate forwards}@keyframes e9ibN6PzFrw16_to__to { 0% {transform: translate(-12.6347px,-146.457px);animation-timing-function: cubic-bezier(0.42,0,0.58,1)} 33.333333% {transform: translate(-11.343993px,-141.883923px);animation-timing-function: cubic-bezier(0.42,0,0.58,1)} 66.666667% {transform: translate(-11.343993px,-149.980792px);animation-timing-function: cubic-bezier(0.42,0,0.58,1)} 100% {transform: translate(-11.343993px,-142.337013px)}} #e9ibN6PzFrw22_to {animation: e9ibN6PzFrw22_to__to 3000ms linear infinite alternate forwards}@keyframes e9ibN6PzFrw22_to__to { 0% {transform: translate(170.395253px,123.074014px);animation-timing-function: cubic-bezier(0.42,0,0.58,1)} 33.333333% {transform: translate(170.313046px,117.09321px);animation-timing-function: cubic-bezier(0.42,0,0.58,1)} 66.666667% {transform: translate(171.585253px,126.15321px);animation-timing-function: cubic-bezier(0.42,0,0.58,1)} 100% {transform: translate(174.065253px,121.31321px)}}]]></style><defs><linearGradient id="e9ibN6PzFrw3-fill" x1="65.7328" y1="111.3124" x2="87.0528" y2="77.9824" spreadMethod="pad" gradientUnits="userSpaceOnUse"><stop id="e9ibN6PzFrw3-fill-0" offset="0%" stop-color="rgba(241,90,36,0)"/><stop id="e9ibN6PzFrw3-fill-1" offset="100%" stop-color="rgb(241,90,36)"/></linearGradient><linearGradient id="e9ibN6PzFrw39-fill" x1="101.2085" y1="17.224" x2="122.5285" y2="-16.116" spreadMethod="pad" gradientUnits="objectBoundingBox"/></defs><path id="e9ibN6PzFrw2" d="M6.313,133.643L149.983,216.593C156.138,220.154,163.727,220.154,169.883,216.593L337.613,119.383C346.069,114.487,346.069,102.278,337.613,97.383L193.313,14.383C187.759,11.19,180.927,11.19,175.373,14.383L6.373,111.643C-2.098,116.515,-2.131,128.724,6.313,133.643Z" fill="rgb(254,202,92)" stroke="none" stroke-width="1" stroke-miterlimit="1"/><path id="e9ibN6PzFrw3" d="M64.123,119.413L98.893,97.033L77.833,87.753L43.033,109.233C49.383,113.083,57.903,115.413,64.123,119.413Z" opacity="0.68" fill="url(#e9ibN6PzFrw3-fill)" stroke="none" stroke-width="1" stroke-miterlimit="1"/><polygon id="e9ibN6PzFrw4" points="45.803,137.973 162.223,205.393 327.623,109.783 210.273,42.363 45.803,137.973" fill="rgb(255,246,233)" stroke="none" stroke-width="1" stroke-miterlimit="1"/><polygon id="e9ibN6PzFrw5" points="52.243,138.633 161.753,201.863 320.683,110.073 211.723,46.563 52.243,138.633" fill="rgb(41,111,134)" stroke="none" stroke-width="1" stroke-miterlimit="1"/><polygon id="e9ibN6PzFrw6" points="84.793,157.533 207.713,84.793 283.893,131.323 161.753,201.863 84.793,157.533" fill="rgb(90,168,181)" stroke="none" stroke-width="1" stroke-miterlimit="1"/><path id="e9ibN6PzFrw7" d="M245.043,50.433C244.943,44.433,237.793,40.263,233.953,46.163C230.263,51.833,230.623,61.093,230.773,67.593C230.854,68.459,231.843,68.911,232.552,68.408C232.82,68.217,232.992,67.92,233.023,67.593C232.862,62.939,233.154,58.28,233.893,53.683C234.293,51.413,234.803,47.443,237.013,46.133C240.373,44.133,242.743,47.453,242.793,50.433C242.874,51.299,243.863,51.751,244.572,51.248C244.84,51.057,245.012,50.76,245.043,50.433Z" fill="rgb(204,204,204)" stroke="none" stroke-width="1" stroke-miterlimit="1"/><path id="e9ibN6PzFrw8" d="M233.483,43.433C233.383,37.433,226.233,33.263,222.393,39.163C218.703,44.833,219.063,54.093,219.213,60.593C219.294,61.459,220.283,61.911,220.992,61.408C221.26,61.217,221.432,60.92,221.463,60.593C221.319,55.94,221.627,51.285,222.383,46.693C222.783,44.423,223.293,40.453,225.503,39.143C228.863,37.143,231.233,40.463,231.283,43.443C231.364,44.309,232.353,44.761,233.062,44.258C233.33,44.067,233.502,43.77,233.533,43.443Z" fill="rgb(204,204,204)" stroke="none" stroke-width="1" stroke-miterlimit="1"/><path id="e9ibN6PzFrw9" d="M220.323,56.923C220.323,56.733,231.883,63.813,231.883,63.813" fill="none" stroke="rgb(204,204,204)" stroke-width="2" stroke-miterlimit="1"/><path id="e9ibN6PzFrw10" d="M220.953,51.483C220.953,51.293,232.213,58.183,232.213,58.183" fill="none" stroke="rgb(204,204,204)" stroke-width="2" stroke-miterlimit="1"/><rect id="e9ibN6PzFrw11" width="1.9" height="16.62" rx="0.95" ry="0.95" transform="matrix(1 0 0 1 66.623 78.913)" fill="rgb(41,111,134)" stroke="none" stroke-width="1" stroke-miterlimit="1"/><rect id="e9ibN6PzFrw12" width="1.9" height="16.62" rx="0.95" ry="0.95" transform="matrix(1 0 0 1 85.643 86.343)" fill="rgb(41,111,134)" stroke="none" stroke-width="1" stroke-miterlimit="1"/><path id="e9ibN6PzFrw13" d="M97.223,86.563C97.134,86.499,97.056,86.421,96.993,86.333L96.993,97.043C97.233,97.774,98.175,97.971,98.688,97.397C98.78,97.294,98.85,97.174,98.893,97.043L98.893,87.463C98.309,87.215,97.75,86.913,97.223,86.563Z" fill="rgb(41,111,134)" stroke="none" stroke-width="1" stroke-miterlimit="1"/><polygon id="e9ibN6PzFrw14" points="70.463,60.903 58.743,68.383 67.963,83.563 80.573,76.653 70.463,60.903" fill="rgb(104,225,253)" stroke="none" stroke-width="1" stroke-miterlimit="1"/><polygon id="e9ibN6PzFrw15" points="80.573,76.653 99.913,87.223 87.543,94.873 67.963,83.563 80.573,76.653" fill="rgb(104,225,253)" stroke="none" stroke-width="1" stroke-miterlimit="1"/><g id="e9ibN6PzFrw16_to" transform="translate(-12.6347,-146.457)"><g id="e9ibN6PzFrw16" transform="translate(0,0)"><g id="e9ibN6PzFrw17" transform="matrix(1 0 0 1 0.000001 0)"><circle id="e9ibN6PzFrw18" r="13.93" transform="matrix(1 0 0 1 270.317 243.49)" fill="rgb(104,225,253)" stroke="none" stroke-width="1" stroke-miterlimit="1"/><path id="e9ibN6PzFrw19" d="M270.317,229.69C269.032,229.693,267.753,229.875,266.517,230.23C272.705,232.773,276.952,238.563,277.517,245.23C277.824,249.109,277.135,253.001,275.517,256.54C285.471,252.571,287.396,239.315,278.982,232.68C276.514,230.734,273.46,229.68,270.317,229.69Z" fill="rgb(104,225,253)" stroke="none" stroke-width="1" stroke-miterlimit="1"/><path id="e9ibN6PzFrw20" d="M268.207,229.69C267.432,229.823,266.67,230.02,265.927,230.28C261.93,239.375,263.645,249.97,270.307,257.34L270.507,257.34C272.97,257.334,275.387,256.671,277.507,255.42C278.417,246.25,275.017,234.9,268.207,229.69Z" fill="rgb(255,246,233)" stroke="none" stroke-width="1" stroke-miterlimit="1"/></g><ellipse id="e9ibN6PzFrw21" rx="8.01" ry="2.55" transform="matrix(1 0 0 1 269.307 274.17)" fill="rgb(41,111,134)" stroke="none" stroke-width="1" stroke-miterlimit="1"/></g></g><g id="e9ibN6PzFrw22_to" transform="translate(170.395253,123.074014)"><g id="e9ibN6PzFrw22" transform="rotate(-369.517071) translate(-181.017,-283.37594)"><g id="e9ibN6PzFrw23"><path id="e9ibN6PzFrw24" d="M167.417,269.9C169.187,269.12,181.017,279.06,181.017,279.06C181.017,279.06,171.157,281.57,166.887,282.06C163.932,282.363,160.953,282.363,157.997,282.06C157.997,282.06,157.357,274.3,167.417,269.9Z" fill="rgb(104,225,253)" stroke="none" stroke-width="1" stroke-miterlimit="1"/><path id="e9ibN6PzFrw25" d="M224.217,242.47C221.477,242.3,220.737,243.78,219.707,243.27C218.677,242.76,216.397,242.07,215.887,243.1C215.517,244.013,215.268,244.971,215.147,245.95C213.671,246.8,212.134,247.539,210.547,248.16C211.657,249.16,212.457,249.61,213.547,250.62C216.607,248.62,219.157,247.03,219.887,246.71C221.837,245.86,226.587,243.71,226.587,243.71C226.587,243.71,226.957,242.69,224.217,242.47Z" fill="rgb(255,205,178)" stroke="none" stroke-width="1" stroke-miterlimit="1"/><path id="e9ibN6PzFrw26" d="M233.897,245.95C231.157,245.78,230.417,247.26,229.387,246.75C228.357,246.24,226.077,245.55,225.567,246.58C225.211,247.541,225.015,248.555,224.987,249.58C222.054,250.642,219.206,251.926,216.467,253.42C216.557,253.49,216.347,252.98,216.467,253.05C217.855,254.037,219.309,254.929,220.817,255.72C224.887,253.09,228.697,250.62,229.607,250.22C231.557,249.37,236.307,247.22,236.307,247.22C236.307,247.22,236.637,246.12,233.897,245.95Z" fill="rgb(255,205,178)" stroke="none" stroke-width="1" stroke-miterlimit="1"/><path id="e9ibN6PzFrw27" d="M215.257,246.41C215.096,246.343,214.993,246.184,214.997,246.01C212.717,246.71,208.367,248.21,206.357,250.01C203.557,252.46,190.147,257.49,190.147,257.49L172.337,265.49L150.567,277.29C150.567,277.29,156.767,279.85,166.147,277.29C175.527,274.73,176.017,272.66,181.377,270.59C186.737,268.52,198.797,259.87,201.477,258.65C203.607,257.65,213.607,251.01,218.587,247.89C217.467,247.42,216.377,246.87,215.257,246.41Z" fill="rgb(104,225,253)" stroke="none" stroke-width="1" stroke-miterlimit="1"/><path id="e9ibN6PzFrw28" d="M225.017,249.56C223.107,250.12,217.897,251.77,215.637,253.75C212.837,256.2,199.427,261.23,199.427,261.23L181.617,269.23L159.817,281.05C159.817,281.05,166.017,283.61,175.397,281.05C184.777,278.49,185.267,276.42,190.627,274.35C195.987,272.28,208.047,263.63,210.727,262.41C212.937,261.41,223.577,254.28,228.347,251.33C227.197,250.79,226.077,250.2,225.017,249.56Z" fill="rgb(104,225,253)" stroke="none" stroke-width="1" stroke-miterlimit="1"/><path id="e9ibN6PzFrw29" d="M151.537,278.79C151.537,278.79,146.127,282.91,143.777,284.32C141.427,285.73,137.907,288.88,134.117,291.86C131.647,293.8,125.387,298.07,125.477,299.3C125.567,300.53,131.887,298.07,132.477,298.64C133.067,299.21,131.477,301.47,132.757,301.28C134.037,301.09,134.167,297.23,134.827,296.66C135.487,296.09,143.827,290.04,145.727,288.45C147.157,287.27,160.187,280.55,160.187,280.55" fill="rgb(255,205,178)" stroke="none" stroke-width="1" stroke-miterlimit="1"/><path id="e9ibN6PzFrw30" d="M152.427,277.58C152.427,277.58,143.347,284.85,140.987,286.28C138.627,287.71,135.377,290.64,131.747,293.54C132.917,294.46,134.137,295.32,135.327,296.2C138.087,294.14,141.717,291.43,142.917,290.44C144.347,289.26,157.377,282.44,157.377,282.44Z" fill="rgb(104,225,253)" stroke="none" stroke-width="1" stroke-miterlimit="1"/><path id="e9ibN6PzFrw31" d="M149.257,278.53C149.257,278.53,152.257,282.01,155.687,282.59C159.117,283.17,160.237,281.27,160.157,279.11C159.993,277.456,159.575,275.837,158.917,274.31C158.917,274.31,150.107,270.5,149.257,278.53Z" fill="rgb(255,205,178)" stroke="none" stroke-width="1" stroke-miterlimit="1"/><path id="e9ibN6PzFrw32" d="M156.557,273.55C156.507,273.34,156.127,273.36,156.087,273.63C155.925,275.027,155.564,276.394,155.017,277.69C154.943,277.876,155.098,278.072,155.296,278.044C155.303,278.043,155.31,278.041,155.317,278.04L155.257,278.27C155.224,278.451,155.399,278.602,155.573,278.54C155.64,278.517,155.692,278.465,155.717,278.4C156.164,276.886,156.547,275.356,156.867,273.81C156.879,273.64,156.722,273.509,156.557,273.55Z" fill="rgb(9,0,3)" stroke="none" stroke-width="1" stroke-miterlimit="1"/><path id="e9ibN6PzFrw33" d="M153.157,280.16C152.978,280.425,152.759,280.661,152.507,280.86C152.267,281.05,152.607,281.38,152.847,281.2C153.126,280.974,153.369,280.708,153.567,280.41C153.737,280.15,153.327,279.91,153.157,280.16Z" fill="rgb(9,0,3)" stroke="none" stroke-width="1" stroke-miterlimit="1"/><path id="e9ibN6PzFrw34" d="M155.657,277.31L155.657,277.31C155.153,276.958,154.482,276.958,153.977,277.31C153.247,277.85,152.597,279.48,153.107,280.23C153.467,280.76,154.217,280.6,154.717,280.41C155.45,280.121,155.957,279.444,156.027,278.66C156.138,278.176,155.999,277.669,155.657,277.31Z" fill="rgb(8,122,228)" stroke="none" stroke-width="1" stroke-miterlimit="1"/><path id="e9ibN6PzFrw35" d="M149.747,279.06C150.635,277.999,151.422,276.857,152.097,275.65C152.831,274.162,154.467,273.344,156.097,273.65C157.353,274.037,158.496,274.723,159.427,275.65C159.427,275.65,158.947,269.97,155.377,269.06C151.807,268.15,148.377,268.96,147.277,273.41C146.177,277.86,149.747,279.06,149.747,279.06Z" fill="rgb(104,225,253)" stroke="none" stroke-width="1" stroke-miterlimit="1"/><path id="e9ibN6PzFrw36" d="M158.507,273.41C158.877,273.11,159.937,271.27,161.927,270.59C164.245,269.542,166.384,268.139,168.267,266.43C169.387,265.37,174.787,256.55,178.207,258.54C181.627,260.53,182.367,271.54,182.367,271.54C182.367,271.54,187.147,279.13,186.717,280.54C186.287,281.95,186.217,283.8,185.097,283.11C183.884,282.062,182.8,280.874,181.867,279.57C181.867,279.57,182.547,281.34,181.677,281.23C180.807,281.12,179.437,277.64,179.437,277.64L178.377,272.11L176.377,266.95L170.167,274.59" fill="rgb(255,205,178)" stroke="none" stroke-width="1" stroke-miterlimit="1"/><path id="e9ibN6PzFrw37" d="M178.017,271.07L178.657,271.07L178.727,271.07C179.914,270.836,181.112,270.669,182.317,270.57C182.037,267.76,181.017,260.19,178.247,258.57C174.827,256.57,169.427,265.41,168.307,266.46C166.424,268.169,164.285,269.572,161.967,270.62C159.967,271.3,158.967,273.15,158.547,273.44L170.227,274.65L176.437,267.01Z" fill="rgb(104,225,253)" stroke="none" stroke-width="1" stroke-miterlimit="1"/></g><ellipse id="e9ibN6PzFrw38" rx="45.71" ry="6.45" transform="matrix(0.885312 -0.464997 0.464997 0.885312 191.642783 298.920702)" fill="rgb(41,111,134)" stroke="none" stroke-width="1" stroke-miterlimit="1"/></g></g><path id="e9ibN6PzFrw39" d="M131.093,83.423L165.863,61.043L144.803,51.763L110.003,73.233C116.323,77.083,124.883,79.413,131.093,83.423Z" opacity="0.76" fill="url(#e9ibN6PzFrw39-fill)" stroke="none" stroke-width="1" stroke-miterlimit="1"/><rect id="e9ibN6PzFrw40" width="1.9" height="16.62" rx="0.95" ry="0.95" transform="matrix(1 0 0 1 133.643 44.333)" fill="rgb(41,111,134)" stroke="none" stroke-width="1" stroke-miterlimit="1"/><rect id="e9ibN6PzFrw41" width="1.9" height="16.62" rx="0.95" ry="0.95" transform="matrix(1 0 0 1 152.663 51.763)" fill="rgb(41,111,134)" stroke="none" stroke-width="1" stroke-miterlimit="1"/><path id="e9ibN6PzFrw42" d="M164.243,51.983C164.154,51.919,164.076,51.841,164.013,51.753L164.013,62.463C164.253,63.194,165.195,63.391,165.708,62.817C165.8,62.714,165.87,62.594,165.913,62.463L165.913,52.883C165.329,52.635,164.77,52.333,164.243,51.983Z" fill="rgb(41,111,134)" stroke="none" stroke-width="1" stroke-miterlimit="1"/><polygon id="e9ibN6PzFrw43" points="137.483,26.323 125.763,33.803 134.973,48.983 147.593,42.073 137.483,26.323" fill="rgb(104,225,253)" stroke="none" stroke-width="1" stroke-miterlimit="1"/><polygon id="e9ibN6PzFrw44" points="147.593,42.073 166.923,52.643 154.563,60.293 134.973,48.983 147.593,42.073" fill="rgb(104,225,253)" stroke="none" stroke-width="1" stroke-miterlimit="1"/><path id="e9ibN6PzFrw45" d="M107.543,59.803L107.543,80.073L112.543,80.073L112.543,60.403C110.852,60.623,109.133,60.417,107.543,59.803Z" fill="rgb(253,157,104)" stroke="none" stroke-width="1" stroke-miterlimit="1"/><ellipse id="e9ibN6PzFrw46" rx="26.61" ry="10.33" transform="matrix(1 0 0 1 108.853 61.483)" fill="rgb(104,225,253)" stroke="none" stroke-width="1" stroke-miterlimit="1"/><ellipse id="e9ibN6PzFrw47" rx="26.61" ry="10.33" transform="matrix(1 0 0 1 108.853 61.483)" opacity="0.18" fill="rgb(0,0,0)" stroke="none" stroke-width="1" stroke-miterlimit="1"/><path id="e9ibN6PzFrw48" d="M112.523,58.723L112.523,19.563L107.523,19.563L107.523,57.933C109.071,58.697,110.814,58.973,112.523,58.723Z" fill="rgb(253,157,104)" stroke="none" stroke-width="1" stroke-miterlimit="1"/><path id="e9ibN6PzFrw49" d="M86.083,35.323C95.575,36.747,105.186,37.219,114.773,36.733C124.373,36.153,136.773,34.623,145.473,28.933C144.093,20.933,127.293,14.653,106.773,14.653C85.343,14.653,67.963,21.523,67.963,29.993C67.963,30.163,67.963,30.323,67.963,30.493C73.113,33.963,80.123,34.483,86.083,35.323Z" fill="rgb(255,205,178)" stroke="none" stroke-width="1" stroke-miterlimit="1"/><path id="e9ibN6PzFrw50" d="M67.963,29.993L67.963,20.723C67.963,20.723,101.263,-0.277,105.033,0.003C108.803,0.283,146.553,15.133,145.583,17.003C144.613,18.873,145.583,30.003,145.583,30.003" fill="rgb(255,205,178)" stroke="none" stroke-width="1" stroke-miterlimit="1"/></svg>