<?xml version="1.0" encoding="UTF-8" standalone="no"?>
<svg
   height="512"
   id="svg2"
   version="1.1"
   width="512"
   sodipodi:docname="email-icon.svg"
   inkscape:version="1.1 (c68e22c387, 2021-05-23)"
   xmlns:inkscape="http://www.inkscape.org/namespaces/inkscape"
   xmlns:sodipodi="http://sodipodi.sourceforge.net/DTD/sodipodi-0.dtd"
   xmlns="http://www.w3.org/2000/svg"
   xmlns:svg="http://www.w3.org/2000/svg">
  <sodipodi:namedview
     id="namedview69"
     pagecolor="#505050"
     bordercolor="#ffffff"
     borderopacity="1"
     inkscape:pageshadow="0"
     inkscape:pageopacity="0"
     inkscape:pagecheckerboard="1"
     showgrid="false"
     inkscape:zoom="1.6835938"
     inkscape:cx="255.70302"
     inkscape:cy="161.26218"
     inkscape:window-width="2560"
     inkscape:window-height="1051"
     inkscape:window-x="-9"
     inkscape:window-y="-9"
     inkscape:window-maximized="1"
     inkscape:current-layer="layer1" />
  <defs
     id="defs4">
    <clipPath
       clipPathUnits="userSpaceOnUse"
       id="clipPath3847">
      <rect
         height="401.85031"
         id="rect3849"
         ry="24.940269"
         style="fill:#005cc8;fill-opacity:1;stroke:none"
         width="405.50885"
         x="192.91168"
         y="341.59683" />
    </clipPath>
    <clipPath
       clipPathUnits="userSpaceOnUse"
       id="clipPath4206">
      <rect
         height="342.67416"
         id="rect4208"
         ry="21.83189"
         style="fill:#005ad2;fill-opacity:1;stroke:none"
         width="342.67416"
         x="275.56522"
         y="396.76877" />
    </clipPath>
  </defs>
  <g
     id="layer1"
     transform="translate(0,-540.36218)">
    <rect
       height="512.49677"
       id="rect3851"
       ry="32.651344"
       style="fill:#db534b;fill-opacity:1;stroke:none;stroke-width:1.01114"
       width="511.9028"
       x="0.22836812"
       y="540.2298"
       rx="0" />
    <g
       clip-path="url(#clipPath4206)"
       id="g4145"
       style="opacity:0.489612;fill:#000000;fill-opacity:0.0588235"
       transform="matrix(1.4340312,0,0,1.3941195,-384.07142,20.666847)">
      <g
         id="g4147"
         style="fill:#000000;fill-opacity:0.0588235;stroke:none">
        <path
           d="m 561.53848,561.01605 c 0,61.06995 -50.79847,110.57692 -113.46155,110.57692 l 707.10677,707.10683 c 62.6631,0 113.4616,-49.507 113.4616,-110.577 z"
           id="path4149"
           style="fill:#000000;fill-opacity:0.0588235" />
        <path
           d="m 448.07693,671.59297 c -31.86024,0 -60.65337,-12.79797 -81.26213,-33.40672 l 707.1068,707.10675 c 20.6087,20.6088 49.4019,33.4068 81.2621,33.4068 z"
           id="path4151"
           style="fill:#000000;fill-opacity:0.0588235" />
        <path
           d="m 366.8148,638.18625 c -19.92477,-19.92478 -32.19941,-47.15048 -32.19941,-77.1702 l 707.10681,707.10675 c 0,30.0197 12.2746,57.2455 32.1994,77.1702 z"
           id="path4153"
           style="fill:#000000;fill-opacity:0.0588235" />
        <path
           d="m 334.61539,561.01605 c 0,-61.06994 50.79847,-110.57692 113.46154,-110.57692 l 707.10677,707.10677 c -62.6631,0 -113.4615,49.507 -113.4615,110.5769 z"
           id="path4155"
           style="fill:#000000;fill-opacity:0.0588235" />
        <path
           d="m 448.07693,450.43913 c 31.86024,0 60.65338,12.79797 81.26214,33.40672 l 707.10673,707.10675 c -20.6087,-20.6087 -49.4018,-33.4067 -81.2621,-33.4067 z"
           id="path4157"
           style="fill:#000000;fill-opacity:0.0588235" />
        <path
           d="m 529.33907,483.84585 c 19.92477,19.92478 32.19941,47.15049 32.19941,77.1702 l 707.10682,707.10675 c 0,-30.0197 -12.2747,-57.2454 -32.1995,-77.1702 z"
           id="path4159"
           style="fill:#000000;fill-opacity:0.0588235" />
      </g>
      <path
         d="m 561.53848,561.01605 c 0,61.06995 -50.79847,110.57692 -113.46155,110.57692 -62.66307,0 -113.46154,-49.50697 -113.46154,-110.57692 0,-61.06994 50.79847,-110.57692 113.46154,-110.57692 62.66308,0 113.46155,49.50698 113.46155,110.57692 z"
         id="path4111"
         style="fill:#000000;fill-opacity:0.0588235;stroke:none" />
    </g>
    <path
       d="m 112.03852,651.2232 h 290.53309 a 36.316637,36.316637 0 0 1 36.31662,36.31663 v 217.89979 a 36.316637,36.316637 0 0 1 -36.31662,36.31667 H 112.03852 c -20.155727,0 -36.316636,-16.34247 -36.316636,-36.31667 V 687.53983 c 0,-20.15572 16.160909,-36.31663 36.316636,-36.31663 M 257.30506,778.33142 402.57161,687.53983 H 112.03852 l 145.26654,90.79159 M 112.03852,905.43962 H 402.57161 V 730.57505 L 257.30506,821.18506 112.03852,730.57505 Z"
       id="path3864"
       style="fill:#ffffff" />
  </g>
</svg>
