<svg id="Gradient" enable-background="new 0 0 77.24 126" height="512" viewBox="0 0 77.24 126" width="512" xmlns="http://www.w3.org/2000/svg" xmlns:xlink="http://www.w3.org/1999/xlink"><linearGradient id="SVGID_1_" gradientUnits="userSpaceOnUse" x1="38.62" x2="38.62" y1="0" y2="126"><stop offset="0" stop-color="#efcb58"/><stop offset="1" stop-color="#cc57c7"/></linearGradient><path d="m38.62 11.749c3.268 0 19.57-.201 19.57-4.165s-16.302-4.164-19.57-4.164-19.57.201-19.57 4.164 16.303 4.165 19.57 4.165zm0-6.329c10.25 0 16.101 1.333 17.393 2.165-1.292.831-7.143 2.164-17.393 2.164s-16.1-1.333-17.392-2.165c1.292-.831 7.142-2.164 17.392-2.164zm-34.748 14.394v86.628c-1.05.759-1.868 1.65-2.405 2.67-1.433 2.721-.629 6.114 1.91 8.067 4.279 3.295 14.549 8.821 35.243 8.821s30.964-5.526 35.242-8.82c2.54-1.954 3.344-5.347 1.911-8.067-.537-1.02-1.355-1.91-2.405-2.67v-86.629c2.446-1.185 3.872-2.58 3.872-4.184v-6.584c0-5.939-19.428-9.046-38.62-9.046s-38.62 3.107-38.62 9.046v6.584c0 1.604 1.426 2.999 3.872 4.184zm4.501 1.653v11.194c-1.205-.591-2.04-1.073-2.501-1.355v-10.649c.773.285 1.606.555 2.501.81zm17.411 2.733v13.686c-1.592-.249-3.094-.535-4.503-.847v-13.252c1.463.16 2.969.297 4.503.413zm6.197.35v14.05c-1.456-.112-2.858-.255-4.197-.429v-13.83c1.383.087 2.784.156 4.197.209zm11.278.064v14.116c-1.177.062-2.391.1-3.639.114v-14.173c1.215-.007 2.429-.026 3.639-.057zm12.7-.827v13.259c-1.409.311-2.91.597-4.503.845v-13.691c1.534-.116 3.04-.253 4.503-.413zm5.582-.749v12.519c-1.106.348-2.3.689-3.582 1.013v-13.018c1.233-.156 2.427-.328 3.582-.514zm9.827 83.562c-.329.385-1.118 1.225-2.501 2.267v-16.088c1.027-.481 1.861-.917 2.501-1.275zm-37.387 9.846v-17.838c1.178.059 2.391.096 3.639.109v17.838c-1.254-.014-2.473-.048-3.639-.109zm3.639-75.601v2.439c-18.714-.209-29.54-6.187-31.748-7.538v-2.114c3.795 2.125 14.415 7.028 31.748 7.213zm33.748 48.335c-2.2 1.352-12.988 7.328-31.748 7.536v-2.439c17.333-.185 27.953-5.088 31.748-7.213zm-65.496-.002v-2.114c3.795 2.125 14.415 7.028 31.748 7.213v2.439c-18.713-.209-29.54-6.187-31.748-7.538zm57.669-.856v-20.144c1.226-.418 2.339-.84 3.326-1.249v20.092c-.967.418-2.078.859-3.326 1.301zm-2 .668c-1.106.348-2.3.689-3.582 1.013v-20.203c1.275-.31 2.469-.639 3.582-.976zm-5.582 1.489c-1.409.311-2.91.597-4.503.845v-20.255c1.589-.238 3.089-.514 4.503-.815zm-6.503 1.128c-1.339.173-2.741.316-4.197.427v-20.281c1.456-.107 2.855-.246 4.197-.413zm-6.197.556c-1.177.062-2.391.1-3.639.114v-20.291c1.247-.013 2.461-.05 3.639-.109zm-5.639-24.616v2.439c-18.714-.209-29.54-6.187-31.748-7.538v-2.114c3.795 2.125 14.415 7.028 31.748 7.213zm-31.748-2.774c.64.358 1.474.794 2.501 1.275v20.046c-1.205-.591-2.04-1.073-2.501-1.355zm4.501 2.157c.987.409 2.1.83 3.326 1.249v20.136c-1.247-.442-2.359-.883-3.326-1.3zm5.326 1.893c1.113.338 2.307.666 3.582.976v20.196c-1.281-.324-2.476-.665-3.582-1.014zm5.582 1.431c1.414.301 2.914.576 4.503.815v20.251c-1.592-.249-3.094-.535-4.503-.847zm6.503 1.087c1.342.167 2.741.306 4.197.413v20.28c-1.456-.112-2.858-.255-4.197-.429zm6.197.536c1.178.059 2.391.096 3.639.109v20.291c-1.248-.014-2.461-.053-3.639-.115zm3.639-6.33c-1.248-.014-2.461-.053-3.639-.115v-20.258c1.178.059 2.391.096 3.639.109zm-5.639-.244c-1.456-.112-2.858-.255-4.197-.429v-20.236c1.342.167 2.741.306 4.197.413zm-6.197-.714c-1.592-.249-3.094-.535-4.503-.847v-20.191c1.414.301 2.914.576 4.503.815zm-6.503-1.323c-1.281-.325-2.475-.666-3.582-1.014v-20.131c1.113.338 2.307.666 3.582.976zm-5.582-1.682c-1.247-.442-2.359-.883-3.326-1.3v-20.057c.987.409 2.1.83 3.326 1.249zm-5.326-2.22c-1.205-.591-2.04-1.073-2.501-1.355v-19.938c.64.358 1.474.794 2.501 1.275zm62.995 25.377c-.46.283-1.295.766-2.501 1.359v-20.052c1.027-.481 1.861-.917 2.501-1.275zm0-22.291c-2.2 1.352-12.988 7.328-31.748 7.536v-2.439c17.333-.185 27.953-5.088 31.748-7.213zm0-4.439c-.46.283-1.295.766-2.501 1.359v-20.024c1.027-.481 1.861-.917 2.501-1.275zm-4.501 2.28c-.967.418-2.078.859-3.326 1.301v-20.116c1.226-.418 2.339-.84 3.326-1.249zm-5.326 1.968c-1.106.348-2.3.689-3.582 1.013v-20.175c1.275-.31 2.469-.639 3.582-.976zm-5.582 1.489c-1.409.311-2.91.597-4.503.845v-20.227c1.589-.238 3.089-.514 4.503-.815zm-6.503 1.129c-1.339.173-2.741.316-4.197.427v-20.253c1.456-.107 2.855-.246 4.197-.413zm-6.197.556c-1.177.062-2.391.1-3.639.114v-20.263c1.247-.013 2.461-.05 3.639-.109zm-37.387 26.071c.64.358 1.474.794 2.501 1.275v16.066c-1.381-1.036-2.171-1.868-2.501-2.249zm4.501 2.156c.987.409 2.1.83 3.326 1.249v17.06c-1.282-.593-2.382-1.194-3.326-1.772zm5.326 1.894c1.113.338 2.307.666 3.582.976v17.524c-1.3-.389-2.494-.803-3.582-1.233zm5.582 1.43c1.414.301 2.914.576 4.503.815v17.756c-1.612-.274-3.116-.59-4.503-.943zm6.503 1.087c1.342.167 2.741.306 4.197.413v17.833c-1.475-.115-2.869-.27-4.197-.453zm11.836.646c1.247-.013 2.461-.05 3.639-.109v17.84c-1.165.061-2.385.094-3.639.107zm5.639-.233c1.456-.107 2.855-.246 4.197-.413v17.799c-1.328.181-2.723.334-4.197.448zm6.197-.685c1.589-.238 3.089-.514 4.503-.815v17.642c-1.387.35-2.89.665-4.503.937zm6.503-1.269c1.275-.31 2.469-.639 3.582-.976v17.291c-1.087.428-2.282.841-3.582 1.228zm5.582-1.621c1.226-.418 2.339-.84 3.326-1.249v16.562c-.944.579-2.043 1.18-3.326 1.772zm7.827-59.162c-2.2 1.352-12.988 7.328-31.748 7.536v-2.439c17.333-.185 27.953-5.088 31.748-7.213zm-7.827-.858v-12.197c1.165-.217 2.275-.453 3.326-.705v11.601c-.967.418-2.078.859-3.326 1.301zm-14.085 3.285c-1.339.173-2.741.316-4.197.427v-14.051c1.413-.053 2.815-.122 4.197-.21zm-11.836.67c-1.248-.014-2.461-.053-3.639-.115v-14.115c1.209.032 2.423.051 3.639.058zm-18.339-2.281c-1.281-.324-2.476-.665-3.582-1.014v-12.511c1.155.187 2.349.359 3.582.514zm-5.582-1.682c-1.247-.442-2.359-.883-3.326-1.3v-11.594c1.051.252 2.161.488 3.326.705zm58.944 80.714c-4.078 3.139-13.92 8.405-34.023 8.405s-29.945-5.266-34.023-8.405c-1.766-1.359-2.338-3.693-1.36-5.551.337-.64.83-1.224 1.47-1.742 2.342 2.519 11.379 10.265 33.914 10.265s31.572-7.747 33.914-10.265c.64.518 1.133 1.102 1.47 1.742.976 1.857.404 4.192-1.362 5.551zm-1.275-84.287c-.46.283-1.295.766-2.501 1.359v-11.2c.895-.255 1.728-.526 2.501-.81zm.811-13.095c-.139.028-.263.08-.375.158-3.073 1.268-8.127 2.476-14.841 3.288-.002 0-.003-.001-.005-.001-.006 0-.011.003-.018.004-2.011.243-4.167.451-6.465.613-.007 0-.013-.004-.021-.004-.016 0-.029.008-.044.009-3.601.253-7.543.397-11.792.397s-8.191-.144-11.792-.397c-.016-.001-.029-.009-.044-.009-.007 0-.013.004-.021.004-2.298-.163-4.454-.371-6.465-.613-.006 0-.011-.004-.018-.004-.002 0-.003.001-.005.001-6.713-.812-11.767-2.02-14.841-3.288-.112-.078-.236-.13-.375-.158-1.997-.876-3.057-1.773-3.057-2.583v-3.49c5.429 3.918 21.1 5.952 36.62 5.952s31.191-2.033 36.62-5.952v3.49c0 .81-1.06 1.707-3.061 2.583zm-33.559-16.213c22.688 0 36.62 4.104 36.62 7.046s-13.932 7.046-36.62 7.046-36.62-4.104-36.62-7.046 13.932-7.046 36.62-7.046z" fill="url(#SVGID_1_)"/></svg>