<svg height="472pt" viewBox="-20 0 472 472.008" width="472pt" xmlns="http://www.w3.org/2000/svg"><path d="m280.003906 280c-4.417968 0-8-3.582031-8-8v-80c0-4.417969 3.582032-8 8-8 4.417969 0 8 3.582031 8 8v80c0 4.417969-3.582031 8-8 8zm0 0" fill="#195c85"/><path d="m280.003906 272h16v192h-16c-8.835937 0-16-7.164062-16-16v-160c0-8.835938 7.164063-16 16-16zm0 0" fill="#aabece"/><path d="m264.003906 0h32v184c0 4.417969-3.582031 8-8 8h-16c-4.417968 0-8-3.582031-8-8zm0 0" fill="#ad6327"/><path d="m32.003906 320h32v96h-32c-17.671875 0-31.99999975-14.328125-31.99999975-32v-32c0-17.671875 14.32812475-32 31.99999975-32zm0 0" fill="#2d75bb"/><path d="m64.003906 320h48c17.671875 0 32 14.328125 32 32v32c0 17.671875-14.328125 32-32 32h-48zm0 0" fill="#87cee9"/><path d="m16.003906 352h16v16h-16zm0 0" fill="#fff"/><path d="m172.546875 398.550781-28.542969-14.40625v-32.289062l28.542969-14.398438c4.1875-2.09375 9.160156-1.855469 13.128906.621094 3.972657 2.480469 6.367188 6.84375 6.328125 11.523437v36.796876c.042969 4.683593-2.351562 9.046874-6.324218 11.527343-3.96875 2.480469-8.945313 2.71875-13.132813.625zm0 0" fill="#2d75bb"/><path d="m64.003906 352h24c4.417969 0 8 3.582031 8 8v16c0 4.417969-3.582031 8-8 8h-24zm0 0" fill="#fff"/><path d="m200.003906 296c-7.867187-.265625-15.121094-4.320312-19.472656-10.878906-3.398438-4.097656-4.597656-5.121094-7.199219-5.121094-2.695312 0-4 1.246094-7.199219 5.128906-4.171874 6.761719-11.546874 10.875-19.488281 10.875-7.945312 0-15.320312-4.113281-19.488281-10.875-3.199219-3.871094-4.496094-5.121094-7.199219-5.121094-4.417969 0-8-3.582031-8-8 0-4.417968 3.582031-8 8-8 7.871094.265626 15.128907 4.316407 19.488281 10.878907 3.199219 3.875 4.496094 5.121093 7.199219 5.121093s4-1.246093 7.199219-5.121093c4.164062-6.761719 11.539062-10.878907 19.480469-10.878907 7.941406 0 15.3125 4.117188 19.480469 10.878907 3.398437 4.097656 4.597656 5.121093 7.199218 5.121093 4.417969 0 8 3.582032 8 8 0 4.417969-3.582031 8-8 8zm0 0" fill="#87cee9"/><path d="m232.003906 472c-7.867187-.265625-15.121094-4.320312-19.472656-10.878906-3.398438-4.097656-4.597656-5.121094-7.199219-5.121094-2.695312 0-4 1.246094-7.199219 5.128906-4.171874 6.761719-11.546874 10.875-19.488281 10.875-7.945312 0-15.320312-4.113281-19.488281-10.875-3.199219-3.871094-4.496094-5.121094-7.199219-5.121094-4.417969 0-8-3.582031-8-8 0-4.417968 3.582031-8 8-8 7.871094.265626 15.128907 4.316407 19.488281 10.878907 3.199219 3.875 4.496094 5.121093 7.199219 5.121093s4-1.246093 7.199219-5.121093c4.164062-6.761719 11.539062-10.878907 19.480469-10.878907 7.941406 0 15.3125 4.117188 19.480469 10.878907 3.398437 4.097656 4.597656 5.121093 7.199218 5.121093 4.417969 0 8 3.582032 8 8 0 4.417969-3.582031 8-8 8zm0 0" fill="#87cee9"/><path d="m296.003906 272v192l32-15.472656v-161.054688zm0 0" fill="#5a6470"/><path d="m405.164062 324.800781-13.160156-6.402343v99.203124l13.160156-6.402343c16.558594-8.019531 27.078126-24.800781 27.078126-43.199219s-10.519532-35.179688-27.078126-43.199219zm0 0" fill="#aabece"/><path d="m328.003906 287.472656v161.054688l32-15.480469v-130.09375zm0 0" fill="#aabece"/><path d="m392.003906 318.425781-32-15.472656v130.09375l32-15.472656zm0 0" fill="#5a6470"/><g fill="#2d75bb"><path d="m16.003906 264h16v16h-16zm0 0"/><path d="m48.003906 232h16v16h-16zm0 0"/><path d="m16.003906 200h16v16h-16zm0 0"/><path d="m48.003906 168h16v16h-16zm0 0"/></g></svg>