<svg xmlns="http://www.w3.org/2000/svg" viewBox="0 0 343.955 219.264" width="500" height="318.739">
  <defs>
    <linearGradient id="linear-gradient" x1="97.35" y1="158.08" x2="118.67" y2="124.75" gradientUnits="userSpaceOnUse" gradientTransform="matrix(1, 0, 0, 1, -31.617172, -46.767636)">
      <stop offset="0" stop-color="#f15a24" stop-opacity="0"></stop>
      <stop offset="1" stop-color="#f15a24"></stop>
    </linearGradient>
    <linearGradient id="linear-gradient-2" x1="164.32" y1="122.09" x2="185.64" y2="88.75" gradientTransform="matrix(1, 0, 0, 1, -63.111517, -104.866047)"></linearGradient>
  </defs>
  <path d="M 6.313 133.643 L 149.983 216.593 C 156.138 220.154 163.727 220.154 169.883 216.593 L 337.613 119.383 C 346.069 114.487 346.069 102.278 337.613 97.383 L 193.313 14.383 C 187.759 11.19 180.927 11.19 175.373 14.383 L 6.373 111.643 C -2.098 116.515 -2.131 128.724 6.313 133.643 Z" fill="#feca5c" style=""></path>
  <path d="M 64.123 119.413 L 98.893 97.033 L 77.833 87.753 L 43.033 109.233 C 49.383 113.083 57.903 115.413 64.123 119.413 Z" opacity="0.68" fill="url(#linear-gradient)" style=""></path>
  <polygon points="45.803 137.973 162.223 205.393 327.623 109.783 210.273 42.363 45.803 137.973" fill="#fff6e9" style=""></polygon>
  <polygon points="52.243 138.633 161.753 201.863 320.683 110.073 211.723 46.563 52.243 138.633" fill="#296f86" style=""></polygon>
  <polygon points="84.793 157.533 207.713 84.793 283.893 131.323 161.753 201.863 84.793 157.533" fill="#5aa8b5" style=""></polygon>
  <path d="M 245.043 50.433 C 244.943 44.433 237.793 40.263 233.953 46.163 C 230.263 51.833 230.623 61.093 230.773 67.593 C 230.854 68.459 231.843 68.911 232.552 68.408 C 232.82 68.217 232.992 67.92 233.023 67.593 C 232.862 62.939 233.154 58.28 233.893 53.683 C 234.293 51.413 234.803 47.443 237.013 46.133 C 240.373 44.133 242.743 47.453 242.793 50.433 C 242.874 51.299 243.863 51.751 244.572 51.248 C 244.84 51.057 245.012 50.76 245.043 50.433 Z" fill="#ccc"></path>
  <path d="M 233.483 43.433 C 233.383 37.433 226.233 33.263 222.393 39.163 C 218.703 44.833 219.063 54.093 219.213 60.593 C 219.294 61.459 220.283 61.911 220.992 61.408 C 221.26 61.217 221.432 60.92 221.463 60.593 C 221.319 55.94 221.627 51.285 222.383 46.693 C 222.783 44.423 223.293 40.453 225.503 39.143 C 228.863 37.143 231.233 40.463 231.283 43.443 C 231.364 44.309 232.353 44.761 233.062 44.258 C 233.33 44.067 233.502 43.77 233.533 43.443 Z" fill="#ccc"></path>
  <path d="M 220.323 56.923 C 220.323 56.733 231.883 63.813 231.883 63.813" fill="none" stroke="#ccc" stroke-miterlimit="10" stroke-width="2"></path>
  <path d="M 220.953 51.483 C 220.953 51.293 232.213 58.183 232.213 58.183" fill="none" stroke="#ccc" stroke-miterlimit="10" stroke-width="2"></path>
  <rect x="66.623" y="78.913" width="1.9" height="16.62" rx="0.95" ry="0.95" fill="#296f86"></rect>
  <rect x="85.643" y="86.343" width="1.9" height="16.62" rx="0.95" ry="0.95" fill="#296f86"></rect>
  <path d="M 97.223 86.563 C 97.134 86.499 97.056 86.421 96.993 86.333 L 96.993 97.043 C 97.233 97.774 98.175 97.971 98.688 97.397 C 98.78 97.294 98.85 97.174 98.893 97.043 L 98.893 87.463 C 98.309 87.215 97.75 86.913 97.223 86.563 Z" fill="#296f86"></path>
  <polygon points="70.463 60.903 58.743 68.383 67.963 83.563 80.573 76.653 70.463 60.903" fill="#68e1fd"></polygon>
  <polygon points="80.573 76.653 99.913 87.223 87.543 94.873 67.963 83.563 80.573 76.653" fill="#68e1fd"></polygon>
  <g class="animation-group" id="ball-group" transform="matrix(1, 0, 0, 1, -12.63466, -146.457395)">
    <title>ball-group</title>
    <g id="ball">
      <title>ball</title>
      <circle cx="270.317" cy="243.49" r="13.93" fill="#68e1fd"></circle>
      <path d="M 270.317 229.69 C 269.032 229.693 267.753 229.875 266.517 230.23 C 272.705 232.773 276.952 238.563 277.517 245.23 C 277.824 249.109 277.135 253.001 275.517 256.54 C 285.471 252.571 287.396 239.315 278.982 232.68 C 276.514 230.734 273.46 229.68 270.317 229.69 Z" fill="#68e1fd"></path>
      <path d="M 268.207 229.69 C 267.432 229.823 266.67 230.02 265.927 230.28 C 261.93 239.375 263.645 249.97 270.307 257.34 L 270.507 257.34 C 272.97 257.334 275.387 256.671 277.507 255.42 C 278.417 246.25 275.017 234.9 268.207 229.69 Z" fill="#fff6e9"></path>
    </g>
    <ellipse cx="269.307" cy="274.17" rx="8.01" ry="2.55" fill="#296f86" id="ball-shadow">
      <title>ball-shadow</title>
    </ellipse>
  </g>
  <g class="animation-group" id="swimmer-group" transform="matrix(1, 0, 0, 1, -12.63466, -146.457395)">
    <title>swimmer-group</title>
    <g style="" id="swimmer">
      <title>swimmer</title>
      <path d="M 167.417 269.9 C 169.187 269.12 181.017 279.06 181.017 279.06 C 181.017 279.06 171.157 281.57 166.887 282.06 C 163.932 282.363 160.953 282.363 157.997 282.06 C 157.997 282.06 157.357 274.3 167.417 269.9 Z" fill="#68e1fd"></path>
      <path d="M 224.217 242.47 C 221.477 242.3 220.737 243.78 219.707 243.27 C 218.677 242.76 216.397 242.07 215.887 243.1 C 215.517 244.013 215.268 244.971 215.147 245.95 C 213.671 246.8 212.134 247.539 210.547 248.16 C 211.657 249.16 212.457 249.61 213.547 250.62 C 216.607 248.62 219.157 247.03 219.887 246.71 C 221.837 245.86 226.587 243.71 226.587 243.71 C 226.587 243.71 226.957 242.69 224.217 242.47 Z" fill="#ffcdb2"></path>
      <path d="M 233.897 245.95 C 231.157 245.78 230.417 247.26 229.387 246.75 C 228.357 246.24 226.077 245.55 225.567 246.58 C 225.211 247.541 225.015 248.555 224.987 249.58 C 222.054 250.642 219.206 251.926 216.467 253.42 C 216.557 253.49 216.347 252.98 216.467 253.05 C 217.855 254.037 219.309 254.929 220.817 255.72 C 224.887 253.09 228.697 250.62 229.607 250.22 C 231.557 249.37 236.307 247.22 236.307 247.22 C 236.307 247.22 236.637 246.12 233.897 245.95 Z" fill="#ffcdb2"></path>
      <path d="M 215.257 246.41 C 215.096 246.343 214.993 246.184 214.997 246.01 C 212.717 246.71 208.367 248.21 206.357 250.01 C 203.557 252.46 190.147 257.49 190.147 257.49 L 172.337 265.49 L 150.567 277.29 C 150.567 277.29 156.767 279.85 166.147 277.29 C 175.527 274.73 176.017 272.66 181.377 270.59 C 186.737 268.52 198.797 259.87 201.477 258.65 C 203.607 257.65 213.607 251.01 218.587 247.89 C 217.467 247.42 216.377 246.87 215.257 246.41 Z" fill="#68e1fd"></path>
      <path d="M 225.017 249.56 C 223.107 250.12 217.897 251.77 215.637 253.75 C 212.837 256.2 199.427 261.23 199.427 261.23 L 181.617 269.23 L 159.817 281.05 C 159.817 281.05 166.017 283.61 175.397 281.05 C 184.777 278.49 185.267 276.42 190.627 274.35 C 195.987 272.28 208.047 263.63 210.727 262.41 C 212.937 261.41 223.577 254.28 228.347 251.33 C 227.197 250.79 226.077 250.2 225.017 249.56 Z" fill="#68e1fd"></path>
      <path d="M 151.537 278.79 C 151.537 278.79 146.127 282.91 143.777 284.32 C 141.427 285.73 137.907 288.88 134.117 291.86 C 131.647 293.8 125.387 298.07 125.477 299.3 C 125.567 300.53 131.887 298.07 132.477 298.64 C 133.067 299.21 131.477 301.47 132.757 301.28 C 134.037 301.09 134.167 297.23 134.827 296.66 C 135.487 296.09 143.827 290.04 145.727 288.45 C 147.157 287.27 160.187 280.55 160.187 280.55" fill="#ffcdb2"></path>
      <path d="M 152.427 277.58 C 152.427 277.58 143.347 284.85 140.987 286.28 C 138.627 287.71 135.377 290.64 131.747 293.54 C 132.917 294.46 134.137 295.32 135.327 296.2 C 138.087 294.14 141.717 291.43 142.917 290.44 C 144.347 289.26 157.377 282.44 157.377 282.44 Z" fill="#68e1fd"></path>
      <path d="M 149.257 278.53 C 149.257 278.53 152.257 282.01 155.687 282.59 C 159.117 283.17 160.237 281.27 160.157 279.11 C 159.993 277.456 159.575 275.837 158.917 274.31 C 158.917 274.31 150.107 270.5 149.257 278.53 Z" fill="#ffcdb2"></path>
      <path d="M 156.557 273.55 C 156.507 273.34 156.127 273.36 156.087 273.63 C 155.925 275.027 155.564 276.394 155.017 277.69 C 154.943 277.876 155.098 278.072 155.296 278.044 C 155.303 278.043 155.31 278.041 155.317 278.04 L 155.257 278.27 C 155.224 278.451 155.399 278.602 155.573 278.54 C 155.64 278.517 155.692 278.465 155.717 278.4 C 156.164 276.886 156.547 275.356 156.867 273.81 C 156.879 273.64 156.722 273.509 156.557 273.55 Z" fill="#090003"></path>
      <path d="M 153.157 280.16 C 152.978 280.425 152.759 280.661 152.507 280.86 C 152.267 281.05 152.607 281.38 152.847 281.2 C 153.126 280.974 153.369 280.708 153.567 280.41 C 153.737 280.15 153.327 279.91 153.157 280.16 Z" fill="#090003"></path>
      <path d="M 155.657 277.31 L 155.657 277.31 C 155.153 276.958 154.482 276.958 153.977 277.31 C 153.247 277.85 152.597 279.48 153.107 280.23 C 153.467 280.76 154.217 280.6 154.717 280.41 C 155.45 280.121 155.957 279.444 156.027 278.66 C 156.138 278.176 155.999 277.669 155.657 277.31 Z" fill="#087ae4"></path>
      <path d="M 149.747 279.06 C 150.635 277.999 151.422 276.857 152.097 275.65 C 152.831 274.162 154.467 273.344 156.097 273.65 C 157.353 274.037 158.496 274.723 159.427 275.65 C 159.427 275.65 158.947 269.97 155.377 269.06 C 151.807 268.15 148.377 268.96 147.277 273.41 C 146.177 277.86 149.747 279.06 149.747 279.06 Z" fill="#68e1fd"></path>
      <path d="M 158.507 273.41 C 158.877 273.11 159.937 271.27 161.927 270.59 C 164.245 269.542 166.384 268.139 168.267 266.43 C 169.387 265.37 174.787 256.55 178.207 258.54 C 181.627 260.53 182.367 271.54 182.367 271.54 C 182.367 271.54 187.147 279.13 186.717 280.54 C 186.287 281.95 186.217 283.8 185.097 283.11 C 183.884 282.062 182.8 280.874 181.867 279.57 C 181.867 279.57 182.547 281.34 181.677 281.23 C 180.807 281.12 179.437 277.64 179.437 277.64 L 178.377 272.11 L 176.377 266.95 L 170.167 274.59" fill="#ffcdb2"></path>
      <path d="M 178.017 271.07 L 178.657 271.07 L 178.727 271.07 C 179.914 270.836 181.112 270.669 182.317 270.57 C 182.037 267.76 181.017 260.19 178.247 258.57 C 174.827 256.57 169.427 265.41 168.307 266.46 C 166.424 268.169 164.285 269.572 161.967 270.62 C 159.967 271.3 158.967 273.15 158.547 273.44 L 170.227 274.65 L 176.437 267.01 Z" fill="#68e1fd"></path>
    </g>
    <ellipse cx="210.63" cy="199.21" rx="45.71" ry="6.45" transform="matrix(0.885312, -0.464997, 0.464997, 0.885312, -87.462568, 220.499741)" fill="#296f86" id="swimmer-shadow">
      <title>swimmer-shadow</title>
    </ellipse>
  </g>
  <path d="M 131.093 83.423 L 165.863 61.043 L 144.803 51.763 L 110.003 73.233 C 116.323 77.083 124.883 79.413 131.093 83.423 Z" opacity="0.68" fill="url(#linear-gradient-2)"></path>
  <rect x="133.643" y="44.333" width="1.9" height="16.62" rx="0.95" ry="0.95" fill="#296f86"></rect>
  <rect x="152.663" y="51.763" width="1.9" height="16.62" rx="0.95" ry="0.95" fill="#296f86"></rect>
  <path d="M 164.243 51.983 C 164.154 51.919 164.076 51.841 164.013 51.753 L 164.013 62.463 C 164.253 63.194 165.195 63.391 165.708 62.817 C 165.8 62.714 165.87 62.594 165.913 62.463 L 165.913 52.883 C 165.329 52.635 164.77 52.333 164.243 51.983 Z" fill="#296f86"></path>
  <polygon points="137.483 26.323 125.763 33.803 134.973 48.983 147.593 42.073 137.483 26.323" fill="#68e1fd"></polygon>
  <polygon points="147.593 42.073 166.923 52.643 154.563 60.293 134.973 48.983 147.593 42.073" fill="#68e1fd"></polygon>
  <path d="M 107.543 59.803 L 107.543 80.073 L 112.543 80.073 L 112.543 60.403 C 110.852 60.623 109.133 60.417 107.543 59.803 Z" fill="#fd9d68"></path>
  <ellipse cx="108.853" cy="61.483" rx="26.61" ry="10.33" fill="#68e1fd"></ellipse>
  <ellipse cx="108.853" cy="61.483" rx="26.61" ry="10.33" opacity="0.18"></ellipse>
  <path d="M 112.523 58.723 L 112.523 19.563 L 107.523 19.563 L 107.523 57.933 C 109.071 58.697 110.814 58.973 112.523 58.723 Z" fill="#fd9d68"></path>
  <path d="M 86.083 35.323 C 95.575 36.747 105.186 37.219 114.773 36.733 C 124.373 36.153 136.773 34.623 145.473 28.933 C 144.093 20.933 127.293 14.653 106.773 14.653 C 85.343 14.653 67.963 21.523 67.963 29.993 C 67.963 30.163 67.963 30.323 67.963 30.493 C 73.113 33.963 80.123 34.483 86.083 35.323 Z" fill="#ffcdb2"></path>
  <path d="M 67.963 29.993 L 67.963 20.723 C 67.963 20.723 101.263 -0.277 105.033 0.003 C 108.803 0.283 146.553 15.133 145.583 17.003 C 144.613 18.873 145.583 30.003 145.583 30.003" fill="#ffcdb2"></path>
</svg>