<?xml version="1.0" encoding="UTF-8" standalone="no"?>
<svg
   height="67px"
   id="Layer_1"
   style="enable-background:new 0 0 67 67;"
   version="1.1"
   viewBox="0 0 67 67"
   width="67px"
   xml:space="preserve"
   sodipodi:docname="twitter-icon.svg"
   inkscape:version="1.1 (c68e22c387, 2021-05-23)"
   xmlns:inkscape="http://www.inkscape.org/namespaces/inkscape"
   xmlns:sodipodi="http://sodipodi.sourceforge.net/DTD/sodipodi-0.dtd"
   xmlns="http://www.w3.org/2000/svg"
   xmlns:svg="http://www.w3.org/2000/svg"><defs
     id="defs25" /><sodipodi:namedview
     id="namedview23"
     pagecolor="#505050"
     bordercolor="#ffffff"
     borderopacity="1"
     inkscape:pageshadow="0"
     inkscape:pageopacity="0"
     inkscape:pagecheckerboard="1"
     showgrid="false"
     inkscape:zoom="12.865672"
     inkscape:cx="33.461137"
     inkscape:cy="14.884571"
     inkscape:window-width="2560"
     inkscape:window-height="1051"
     inkscape:window-x="-9"
     inkscape:window-y="-9"
     inkscape:window-maximized="1"
     inkscape:current-layer="Layer_1" /><path
     d="m 38.211988,20.435485 c -2.925172,1.06485 -4.773647,3.811338 -4.563669,6.817055 l 0.07037,1.159827 -1.170516,-0.141906 c -4.25876,-0.544157 -7.980284,-2.390048 -11.140006,-5.491858 l -1.544677,-1.538614 -0.397618,1.136362 c -0.842146,2.534188 -0.303798,5.208047 1.450857,7.007008 0.935967,0.994456 0.724872,1.136362 -0.889054,0.544157 -0.561803,-0.188835 -1.053241,-0.33074 -1.100151,-0.260346 -0.163068,0.166488 0.397617,2.319653 0.842146,3.172204 0.608712,1.184409 1.848476,2.344235 3.20663,3.030299 l 1.147061,0.544157 -1.357038,0.02347 c -1.310129,0 -1.357038,0.02347 -1.216309,0.520693 0.467983,1.538614 2.31646,3.172204 4.37603,3.882849 l 1.450858,0.496112 -1.263218,0.757574 c -1.871931,1.089433 -4.072232,1.703985 -6.272532,1.752031 -1.054358,0.02347 -1.919959,0.118441 -1.919959,0.188835 0,0.236882 2.855924,1.562079 4.51676,2.082772 4.984742,1.538614 10.906568,0.876015 15.352962,-1.750914 3.159722,-1.870472 6.318326,-5.586834 7.793756,-9.184755 0.796352,-1.917401 1.591588,-5.421464 1.591588,-7.100865 0,-1.089433 0.07037,-1.231339 1.380493,-2.533071 0.772898,-0.758692 1.497768,-1.585544 1.638498,-1.822426 0.23455,-0.450299 0.209979,-0.450299 -0.982876,-0.04916 -1.989205,0.711762 -2.270665,0.616785 -1.286672,-0.448065 0.72487,-0.757575 1.591588,-2.130819 1.591588,-2.534188 0,-0.06928 -0.350708,0.04693 -0.749443,0.260346 -0.421072,0.236882 -1.357039,0.592205 -2.059571,0.804504 l -1.263219,0.40337 -1.147059,-0.782157 c -0.632168,-0.425717 -1.520107,-0.89948 -1.989206,-1.041386 -1.193971,-0.329623 -3.020109,-0.282693 -4.096804,0.09609 z M 0.05073017,0.00666833 H 67.064968 V 67.048675 H 0.05073017 Z"
     style="clip-rule:evenodd;fill:#598dca;fill-rule:evenodd;stroke-width:1.11714"
     id="path20" /></svg>
